<?xml version="1.0" encoding="UTF-8"?>
<svg id="a" data-name="Capa 1" xmlns="http://www.w3.org/2000/svg" viewBox="0 0 1782 386">
  <path d="M189.35,38.22c131.88-9.28,218.04,135.11,144.73,246.24-68.16,103.32-224.7,90.39-276.08-21.85C12.51,163.23,80.47,45.88,189.35,38.22Z" fill="none"/>
  <path d="M248.54,208.03v100.19c0,1.61-6.12,4.48-7.82,4.95-13.02,3.6-51.23,2.68-65.97,1.83-7.1-.41-14.9-1.06-20.74-5.59l-.82-98.97-1.99-2-55.41-.44c-9.33-6.04-6.71-18.04,4.83-19.88,13.29-2.11,50.5-2.28,63.56.12,7.25,1.33,8.51,6.54,9.35,13,2.59,20.03-.39,40.66-.82,60.63-.22,10.2-.36,20.7.83,30.77h55.04v-96.2c0-1.22,6.09-8.38,6.78-8.38h52.25v-16.77h-56.24c-.78,0-4.13-3.11-4.75-4.03-3.05-4.59-3.41-13.59,2.52-15.76,25.34-.07,50.77-.98,76.02,1.02.62.38,2.17,3.69,2.53,4.65,3.26,8.62,3.09,40.18-1.87,47.92-.39.61-2.37,2.92-2.66,2.92h-54.64Z" fill="#111"/>
  <path d="M285.23,113.83l.11,1.97c-4.77,4.32-4.45,11.33-.48,16.09l-.42,1.91H110.53v15.97l21.11,1.63c22.4,1.87,49.17-2.61,71.04-.05,3.42.4,4.41,1.71,5.59,4.78l.38,104.6-1.72.54c-4.22-3.25-10.98-3.08-14.87.62l-1.75-.35-1.59-90.22-95.19-3.93c-.6-.38-1.57-2.5-1.74-3.23-1.53-6.68-1.02-31.79-.42-39.57.28-3.6.67-8.92,5.17-9.19,56.81-1.01,114.06.66,170.72-1.59,5.82-.23,12.31.57,17.98.03Z" fill="#08090a"/>
  <path d="M284.44,133.78c-5.59-5.71-5.91-15,.8-19.96,1.93-.18,3.39-1.58,5.97-1.67,19.55-.69,13.63,32.02-6.77,21.63Z" fill="#ed1c24"/>
  <path d="M208.65,260.72c9.05,10.08-2.97,25.05-14.64,18.24-5.59-3.26-7.25-12.38-3.71-17.45s14.06-5.58,18.35-.8Z" fill="#0071bc"/>
  <g>
    <path d="M534.26,161.23h-43.4v107.4h-36.4v-107.4h-40v-28.6h116.4l3.4,28.6Z"/>
    <path d="M552.25,268.62v-136h90.2l3.4,28.6h-57.2v24.8h41.8l3.4,28.6h-45.2v25.4h59.8l3.4,28.6h-99.6Z"/>
    <path d="M769.45,268.62h-97.6v-136h36.4v107.4h57.8l3.4,28.6Z"/>
    <path d="M787.45,268.62v-136h90.2l3.4,28.6h-57.2v24.8h41.8l3.4,28.6h-45.2v25.4h59.8l3.4,28.6h-99.6Z"/>
    <path d="M965.45,229.62l-22-26.8v65.8h-36.4v-136h25l41,51.8,37.6-51.8h24.2v136h-36.4v-65.8l-18.4,24.8-14.6,2Z"/>
    <path d="M1066.85,268.62v-136h90.2l3.4,28.6h-57.2v24.8h41.8l3.4,28.6h-45.2v25.4h59.8l3.4,28.6h-99.6Z"/>
    <path d="M1292.25,161.23h-43.4v107.4h-36.4v-107.4h-40v-28.6h116.4l3.4,28.6Z"/>
    <path d="M1367.44,132.62c10.13,0,19.43,1.6,27.9,4.8,8.47,3.2,15.27,8.2,20.4,15,5.13,6.8,7.7,15.67,7.7,26.6,0,8.27-1.7,15.4-5.1,21.4-3.4,6-7.83,10.87-13.3,14.6l30,53.6h-42.2l-22-42.8h-24.2v42.8h-36.4v-136h57.2ZM1346.64,161.23v36h20c3.73,0,7.03-.77,9.9-2.3,2.87-1.53,5.13-3.7,6.8-6.5,1.67-2.8,2.5-5.93,2.5-9.4,0-4-.8-7.33-2.4-10-1.6-2.67-3.83-4.63-6.7-5.9-2.87-1.27-6.37-1.9-10.5-1.9h-19.6Z"/>
    <path d="M1453.04,268.62v-136h36.4v136h-36.4Z"/>
    <path d="M1610.44,165.83c-4.8-1.73-8.77-3-11.9-3.8-3.13-.8-5.97-1.37-8.5-1.7-2.53-.33-5.33-.5-8.4-.5-5.33,0-10.5,1.7-15.5,5.1-5,3.4-9.1,8.2-12.3,14.4-3.2,6.2-4.8,13.43-4.8,21.7,0,6.4.97,12.1,2.9,17.1,1.93,5,4.5,9.23,7.7,12.7,3.2,3.47,6.83,6.1,10.9,7.9,4.07,1.8,8.23,2.7,12.5,2.7,4.93,0,9.6-.7,14-2.1,4.4-1.4,8.33-3.17,11.8-5.3l13.8,27.2c-3.47,2.13-7.5,3.93-12.1,5.4-4.6,1.47-9.33,2.6-14.2,3.4-4.87.8-9.63,1.2-14.3,1.2-11.07,0-20.97-1.7-29.7-5.1-8.73-3.4-16.13-8.23-22.2-14.5-6.07-6.27-10.7-13.67-13.9-22.2-3.2-8.53-4.8-17.93-4.8-28.2s1.73-19.97,5.2-28.7c3.47-8.73,8.33-16.27,14.6-22.6,6.27-6.33,13.67-11.23,22.2-14.7,8.53-3.47,17.8-5.2,27.8-5.2,4.53,0,9.2.43,14,1.3,4.8.87,9.47,2.13,14,3.8,4.53,1.67,8.53,3.7,12,6.1l-10.8,24.6Z"/>
    <path d="M1714.04,132.62l50.8,134.4-35.8,3.6-9.8-28.8h-47l-9.4,26.8h-36.2l51-136h36.4ZM1695.24,176.23l-13,37h26.6l-13.6-37Z"/>
  </g>
  <path d="M972.15,48.23c19.77-.69,37.8,14.79,38.82,34.18.71,13.39-11.36,33.88-18.24,45.53-2.04,3.45-17.2,28.61-18.92,29.02-.91.22-1.03-.56-1.46-1.01-2.89-2.99-7.8-11.52-10.34-15.47-9.02-14.06-27.25-42.87-25.87-59.19,1.51-17.89,17.71-32.43,36-33.07ZM970.86,67.08c-8.06,1.03-15.27,8.02-16.06,15.97-1.89,19.03,22.42,28.18,33.95,13.02,9.87-12.98-1.52-31.09-17.88-28.99Z" fill="#ed1c24"/>
  <ellipse cx="199.75" cy="196.25" rx="171.75" ry="172.25" fill="none" stroke="#000" stroke-miterlimit="10" stroke-width="19"/>
</svg>